<?xml version="1.0" encoding="iso-8859-1"?>
<!-- Generator: Adobe Illustrator 19.0.0, SVG Export Plug-In . SVG Version: 6.00 Build 0)  -->
<svg version="1.1" id="Layer_1" xmlns="http://www.w3.org/2000/svg" xmlns:xlink="http://www.w3.org/1999/xlink" x="0px" y="0px"
	 viewBox="0 0 512 512" style="enable-background:new 0 0 512 512;" xml:space="preserve">
<path style="fill:#EDEDEE;" d="M447.437,325.528V220.643H308.483v104.885c0,32.555,22.511,59.94,52.782,67.436v85.644h-39.043V512
	h111.478v-33.391h-39.043v-85.644C424.926,385.468,447.437,358.084,447.437,325.528z"/>
<path style="fill:#DDDCDF;" d="M377.96,220.642c0,0,0,115.868,0,174.364c38.31,0,69.477-31.167,69.477-69.477V220.643H377.96
	V220.642z"/>
<path style="fill:#A8DD5E;" d="M191.876,112.415V0h-76.964v112.415c0,26.263-11.477,51.216-31.417,68.307l0,0
	c-12.018,10.3-18.933,25.337-18.933,41.165V512h177.665V221.887c0-15.827-6.916-30.865-18.933-41.165l0,0
	C203.352,163.63,191.876,138.679,191.876,112.415z"/>
<path style="fill:#86C37E;" d="M191.876,112.415V0h-38.482v512h88.832V221.887c0-15.827-6.916-30.865-18.933-41.165l0,0
	C203.352,163.63,191.876,138.679,191.876,112.415z"/>
<rect x="64.567" y="270.726" style="fill:#EDEDEE;" width="177.664" height="123.715"/>
<rect x="153.388" y="270.726" style="fill:#DDDCDF;" width="88.832" height="123.715"/>
<rect x="114.91" style="fill:#AB7315;" width="76.967" height="64.308"/>
<rect x="153.388" style="fill:#744E12;" width="38.482" height="64.308"/>
<path style="fill:#F9EA8F;" d="M308.483,270.729v54.798c0,38.31,31.167,69.477,69.477,69.477s69.477-31.167,69.477-69.477v-54.798
	H308.483z"/>
<path style="fill:#F5DC49;" d="M377.96,270.729c0,0,0,61.858,0,124.277c38.31,0,69.477-31.167,69.477-69.477V270.73H377.96V270.729z
	"/>
<rect x="322.226" y="478.609" style="fill:#DDDCDF;" width="111.482" height="33.391"/>
<g>
</g>
<g>
</g>
<g>
</g>
<g>
</g>
<g>
</g>
<g>
</g>
<g>
</g>
<g>
</g>
<g>
</g>
<g>
</g>
<g>
</g>
<g>
</g>
<g>
</g>
<g>
</g>
<g>
</g>
</svg>
