<?xml version="1.0" encoding="iso-8859-1"?>
<!-- Generator: Adobe Illustrator 19.0.0, SVG Export Plug-In . SVG Version: 6.00 Build 0)  -->
<svg version="1.1" id="Layer_1" xmlns="http://www.w3.org/2000/svg" xmlns:xlink="http://www.w3.org/1999/xlink" x="0px" y="0px"
	 viewBox="0 0 512 512" style="enable-background:new 0 0 512 512;" xml:space="preserve">
<rect y="11.314" style="fill:#EDEDEE;" width="512" height="489.372"/>
<rect x="256" y="11.314" style="fill:#DDDCDF;" width="256" height="489.372"/>
<rect x="46.539" y="71.778" style="fill:#E3744E;" width="103.725" height="33.391"/>
<g>
	<rect x="46.539" y="138.783" style="fill:#7F7F83;" width="103.725" height="33.391"/>
	<rect x="176.195" y="138.783" style="fill:#7F7F83;" width="34.271" height="33.391"/>
	<rect x="46.539" y="205.799" style="fill:#7F7F83;" width="103.725" height="33.391"/>
	<rect x="176.195" y="205.799" style="fill:#7F7F83;" width="34.271" height="33.391"/>
	<rect x="46.539" y="272.805" style="fill:#7F7F83;" width="103.725" height="33.391"/>
	<rect x="176.195" y="272.805" style="fill:#7F7F83;" width="34.271" height="33.391"/>
	<rect x="46.539" y="339.821" style="fill:#7F7F83;" width="103.725" height="33.391"/>
	<rect x="176.195" y="339.821" style="fill:#7F7F83;" width="34.271" height="33.391"/>
	<rect x="46.539" y="406.826" style="fill:#7F7F83;" width="163.929" height="33.391"/>
</g>
<rect x="302.035" y="71.778" style="fill:#E05323;" width="103.725" height="33.391"/>
<g>
	<rect x="302.035" y="138.783" style="fill:#5B5B5F;" width="103.725" height="33.391"/>
	<rect x="431.694" y="138.783" style="fill:#5B5B5F;" width="34.271" height="33.391"/>
	<rect x="302.035" y="205.799" style="fill:#5B5B5F;" width="103.725" height="33.391"/>
	<rect x="431.694" y="205.799" style="fill:#5B5B5F;" width="34.271" height="33.391"/>
	<rect x="302.035" y="272.805" style="fill:#5B5B5F;" width="103.725" height="33.391"/>
	<rect x="431.694" y="272.805" style="fill:#5B5B5F;" width="34.271" height="33.391"/>
	<rect x="302.035" y="339.821" style="fill:#5B5B5F;" width="103.725" height="33.391"/>
	<rect x="431.694" y="339.821" style="fill:#5B5B5F;" width="34.271" height="33.391"/>
	<rect x="302.035" y="406.826" style="fill:#5B5B5F;" width="163.929" height="33.391"/>
</g>
<g>
</g>
<g>
</g>
<g>
</g>
<g>
</g>
<g>
</g>
<g>
</g>
<g>
</g>
<g>
</g>
<g>
</g>
<g>
</g>
<g>
</g>
<g>
</g>
<g>
</g>
<g>
</g>
<g>
</g>
</svg>
